<svg width="20" height="20" viewBox="0 0 24 24" fill="none" xmlns="http://www.w3.org/2000/svg">
<path 
fill-rule="evenodd" 
clip-rule="evenodd" 
d="M12 7.25C12.4142 7.25 12.75 7.58579 12.75 8V12.5986L15.416 14.376C15.7607 14.6057 15.8538 15.0714 15.624 15.416C15.3943 15.7607 14.9286 15.8538 14.584 15.624L11.584 13.624C11.3753 13.4849 11.25 13.2508 11.25 13V8C11.25 7.58579 11.5858 7.25 12 7.25Z" 
fill="currentColor"/>
<path 
fill-rule="evenodd" 
clip-rule="evenodd" 
d="M12 4.75C7.44365 4.75 3.75 8.44365 3.75 13C3.75 17.5563 7.44365 21.25 12 21.25C16.5563 21.25 20.25 17.5563 20.25 13C20.25 8.44365 16.5563 4.75 12 4.75ZM2.25 13C2.25 7.61522 6.61522 3.25 12 3.25C17.3848 3.25 21.75 7.61522 21.75 13C21.75 18.3848 17.3848 22.75 12 22.75C6.61522 22.75 2.25 18.3848 2.25 13Z" 
fill="currentColor"/>
<path 
fill-rule="evenodd" 
clip-rule="evenodd" 
d="M7.88371 1.69951C8.04967 2.07903 7.87655 2.52122 7.49703 2.68718C5.50668 3.55754 3.81575 4.98802 2.62451 6.77967C2.39517 7.1246 1.92963 7.21831 1.5847 6.98897C1.23977 6.75963 1.14607 6.29409 1.37541 5.94916C2.72442 3.92023 4.63929 2.29969 6.89604 1.31284C7.27556 1.14688 7.71775 1.32 7.88371 1.69951ZM16.1162 1.69951C16.2822 1.32 16.7244 1.14688 17.1039 1.31284C19.3606 2.29969 21.2755 3.92023 22.6245 5.94916C22.8538 6.29409 22.7601 6.75963 22.4152 6.98897C22.0703 7.21831 21.6047 7.1246 21.3754 6.77967C20.1842 4.98802 18.4932 3.55754 16.5029 2.68718C16.1234 2.52122 15.9503 2.07903 16.1162 1.69951Z"
 fill="currentColor"/>

 
<path 
fill-rule="evenodd"
 clip-rule="evenodd" 
 d="M5.69183 18.3993C6.02358 18.6473 6.09147 19.1173 5.84346 19.449L3.60074 22.449C3.35273 22.7808 2.88274 22.8487 2.55098 22.6007C2.21922 22.3527 2.15133 21.8827 2.39935 21.5509L4.64206 18.5509C4.89007 18.2192 5.36007 18.1513 5.69183 18.3993ZM18.3081 18.3993C18.6398 18.1513 19.1098 18.2191 19.3579 18.5509L21.6007 21.5509C21.8488 21.8826 21.7809 22.3526 21.4491 22.6007C21.1174 22.8487 20.6474 22.7808 20.3994 22.4491L18.1565 19.4491C17.9085 19.1173 17.9763 18.6473 18.3081 18.3993Z" 
 fill="currentColor"/>
</svg>
