  <svg width="20" height="20" viewBox="0 0 24 24" fill="none" xmlns="http://www.w3.org/2000/svg">
                        <path 
                        fill-rule="evenodd" 
                        clip-rule="evenodd" 
                        d="M9.5 19.75C9.08579 19.75 8.75 20.0858 8.75 20.5C8.75 20.9142 9.08579 21.25 9.5 21.25C9.91421 21.25 10.25 20.9142 10.25 20.5C10.25 20.0858 9.91421 19.75 9.5 19.75ZM7.25 20.5C7.25 19.2574 8.25736 18.25 9.5 18.25C10.7426 18.25 11.75 19.2574 11.75 20.5C11.75 21.7426 10.7426 22.75 9.5 22.75C8.25736 22.75 7.25 21.7426 7.25 20.5Z" 
                        fill="#f69f0c" />
                        <path 
                        fill-rule="evenodd" 
                        clip-rule="evenodd"
                         d="M18.5 19.75C18.0858 19.75 17.75 20.0858 17.75 20.5C17.75 20.9142 18.0858 21.25 18.5 21.25C18.9142 21.25 19.25 20.9142 19.25 20.5C19.25 20.0858 18.9142 19.75 18.5 19.75ZM16.25 20.5C16.25 19.2574 17.2574 18.25 18.5 18.25C19.7426 18.25 20.75 19.2574 20.75 20.5C20.75 21.7426 19.7426 22.75 18.5 22.75C17.2574 22.75 16.25 21.7426 16.25 20.5Z" 
                         fill="#f69f0c" />
                        <path 
                        fill-rule="evenodd" 
                        clip-rule="evenodd"
                         d="M1.25 2C1.25 1.58579 1.58579 1.25 2 1.25H4C5.25878 1.25 6.32002 2.09575 6.64648 3.25H18C20.6234 3.25 22.75 5.37665 22.75 8V13C22.75 15.6234 20.6234 17.75 18 17.75H10C7.37665 17.75 5.25 15.6234 5.25 13V4C5.25 3.30964 4.69036 2.75 4 2.75H2C1.58579 2.75 1.25 2.41421 1.25 2ZM6.75 8.75V13C6.75 14.7949 8.20507 16.25 10 16.25H18C19.7949 16.25 21.25 14.7949 21.25 13V8.75H6.75ZM21.163 7.25H6.75V4.75H18C19.5368 4.75 20.8245 5.81665 21.163 7.25Z" 
                         fill="#f69f0c" />
                    </svg>