
</svg>
<svg width="20" height="20" viewBox="0 0 24 24" fill="none" xmlns="http://www.w3.org/2000/svg">
<path
 fill-rule="evenodd" 
 clip-rule="evenodd" 
 d="M12 2.75C6.89137 2.75 2.75 6.89137 2.75 12C2.75 17.1086 6.89137 21.25 12 21.25C17.1086 21.25 21.25 17.1086 21.25 12C21.25 10.8597 21.044 9.76917 20.6678 8.76253C20.5229 8.37452 20.7199 7.94244 21.1079 7.79745C21.4959 7.65246 21.928 7.84946 22.0729 8.23747C22.5109 9.40951 22.75 10.6777 22.75 12C22.75 17.9371 17.9371 22.75 12 22.75C6.06294 22.75 1.25 17.9371 1.25 12C1.25 6.06294 6.06294 1.25 12 1.25C13.9568 1.25 15.7936 1.77351 17.3755 2.68862C17.7341 2.89602 17.8566 3.35482 17.6492 3.71337C17.4418 4.07191 16.983 4.19443 16.6245 3.98703C15.2647 3.20043 13.6861 2.75 12 2.75ZM21.5017 3.44253C21.8096 3.71962 21.8346 4.19384 21.5575 4.50172L13.8199 13.0991C12.8453 14.1819 11.1955 14.3168 10.0579 13.4068L6.53148 10.5857C6.20803 10.3269 6.15559 9.85493 6.41435 9.53148C6.67311 9.20803 7.14507 9.15559 7.46852 9.41435L10.9949 12.2355C11.512 12.6491 12.262 12.5878 12.7049 12.0956L20.4425 3.49828C20.7196 3.19039 21.1938 3.16544 21.5017 3.44253Z" 
 fill="#f69f0c"/>
</svg>

