<svg width="20" height="20" viewBox="0 0 24 24" fill="none" xmlns="http://www.w3.org/2000/svg">
<path 
fill-rule="evenodd" 
clip-rule="evenodd" 
d="M14.2445 1.29101C14.547 1.39531 14.75 1.68006 14.75 2.00004V9.75004H19C19.2869 9.75004 19.5486 9.91367 19.6742 10.1715C19.7999 10.4294 19.7674 10.7364 19.5906 10.9623L10.5906 22.4623C10.3934 22.7143 10.0581 22.8134 9.75554 22.7091C9.45303 22.6048 9.25001 22.32 9.25001 22V14.25H5.00001C4.71315 14.25 4.45142 14.0864 4.32578 13.8285C4.20013 13.5707 4.23259 13.2637 4.40938 13.0378L13.4094 1.53781C13.6066 1.28582 13.942 1.1867 14.2445 1.29101ZM6.53934 12.75H10C10.4142 12.75 10.75 13.0858 10.75 13.5V19.8248L17.4607 11.25H14C13.5858 11.25 13.25 10.9143 13.25 10.5V4.1753L6.53934 12.75Z" 
fill="currentColor"/>
</svg>
