<svg width="20" height="20" viewBox="0 0 24 24" fill="none" xmlns="http://www.w3.org/2000/svg">
<path 
fill-rule="evenodd" 
clip-rule="evenodd"
 d="M6 1.25L18 1.25C20.6234 1.25 22.75 3.37665 22.75 6V18C22.75 20.6234 20.6234 22.75 18 22.75H6C3.37665 22.75 1.25 20.6234 1.25 18L1.25 8.00064C1.25 8.00043 1.25 8.00086 1.25 8.00064C1.25 8.00043 1.25 7.99957 1.25 7.99936L1.25 6C1.25 3.37665 3.37665 1.25 6 1.25ZM2.75 8.75L2.75 18C2.75 19.7949 4.20508 21.25 6 21.25H18C19.7949 21.25 21.25 19.7949 21.25 18V8.75L2.75 8.75ZM21.25 7.25L2.75 7.25L2.75 6C2.75 4.20508 4.20507 2.75 6 2.75L18 2.75C19.7949 2.75 21.25 4.20507 21.25 6V7.25Z" 
 fill="#f04544"/>
</svg>