<svg width="24" height="24" viewBox="0 0 24 24" fill="none" xmlns="http://www.w3.org/2000/svg">
<path 
fill-rule="evenodd" 
clip-rule="evenodd" 
d="M20 4.75C19.3096 4.75 18.75 5.30964 18.75 6C18.75 6.4331 18.9696 6.81521 19.3071 7.04062C19.5051 7.17289 19.7424 7.25 20 7.25C20.6904 7.25 21.25 6.69036 21.25 6C21.25 5.30964 20.6904 4.75 20 4.75ZM17.25 6C17.25 4.48122 18.4812 3.25 20 3.25C21.5188 3.25 22.75 4.48122 22.75 6C22.75 7.51878 21.5188 8.75 20 8.75C19.7061 8.75 19.4223 8.70367 19.1561 8.61789L14.0916 16.2147C14.5016 16.6947 14.75 17.3182 14.75 18C14.75 19.5188 13.5188 20.75 12 20.75C10.4812 20.75 9.25 19.5188 9.25 18C9.25 17.6523 9.31481 17.3191 9.43296 17.0122L5.66663 14.1875C5.20454 14.5399 4.62675 14.75 4 14.75C2.48122 14.75 1.25 13.5188 1.25 12C1.25 10.4812 2.48122 9.25 4 9.25C5.51878 9.25 6.75 10.4812 6.75 12C6.75 12.3477 6.68519 12.6809 6.56704 12.9878L10.3334 15.8125C10.7955 15.4601 11.3733 15.25 12 15.25C12.2939 15.25 12.5777 15.2963 12.8439 15.3821L17.9084 7.78533C17.4984 7.30535 17.25 6.68176 17.25 6ZM4 10.75C3.30964 10.75 2.75 11.3096 2.75 12C2.75 12.6904 3.30964 13.25 4 13.25C4.40845 13.25 4.77111 13.0549 5.00044 12.7496C5.15733 12.5408 5.25 12.2823 5.25 12C5.25 11.3096 4.69036 10.75 4 10.75ZM12 16.75C11.5915 16.75 11.2289 16.9451 10.9996 17.2504C10.8427 17.4592 10.75 17.7177 10.75 18C10.75 18.6904 11.3096 19.25 12 19.25C12.6904 19.25 13.25 18.6904 13.25 18C13.25 17.5669 13.0304 17.1848 12.6929 16.9594C12.4949 16.8271 12.2576 16.75 12 16.75Z" 
fill="#3d83f7"/>
</svg>