<svg width="24" height="24" viewBox="0 0 24 24" fill="none" xmlns="http://www.w3.org/2000/svg">
<path 
fill-rule="evenodd" 
clip-rule="evenodd" d="M9.00941 3.84616C9.21546 2.37893 10.4758 1.25 11.9999 1.25C13.5239 1.25 14.7843 2.37893 14.9903 3.84616C17.1227 4.74443 18.7245 6.59842 18.9846 8.89061L19.4318 12.8307C19.4947 13.3846 19.7292 13.9231 20.1232 14.386C20.8885 15.285 20.9121 16.4116 20.4139 17.2895C19.9231 18.1544 18.9504 18.75 17.777 18.75H6.22267C5.04933 18.75 4.07665 18.1544 3.58584 17.2895C3.08763 16.4116 3.11127 15.285 3.87654 14.386C4.27053 13.9231 4.50505 13.3846 4.56792 12.8307L5.01511 8.89061C5.27527 6.59842 6.87706 4.74443 9.00941 3.84616ZM11.9999 2.75C11.1604 2.75 10.4799 3.4305 10.4799 4.26995V4.37366C10.4799 4.69424 10.2762 4.97938 9.97286 5.08322C8.05573 5.73962 6.70856 7.27101 6.50554 9.05977L6.05835 12.9998C5.96014 13.8652 5.59607 14.6801 5.01875 15.3583C4.687 15.748 4.68395 16.1854 4.89042 16.5492C5.10429 16.926 5.56763 17.25 6.22267 17.25H17.777C18.4321 17.25 18.8954 16.926 19.1093 16.5492C19.3158 16.1854 19.3127 15.748 18.981 15.3583C18.4037 14.6801 18.0396 13.8652 17.9414 12.9998L17.4942 9.05977C17.2912 7.27101 15.944 5.73962 14.0269 5.08322C13.7236 4.97938 13.5198 4.69424 13.5198 4.37366V4.26995C13.5198 3.4305 12.8393 2.75 11.9999 2.75ZM8.73666 19.2977C9.12453 19.1523 9.5568 19.3489 9.70216 19.7368C10.0249 20.5979 10.9153 21.25 11.9999 21.25C13.0844 21.25 13.9748 20.5979 14.2976 19.7368C14.4429 19.3489 14.8752 19.1523 15.2631 19.2977C15.6509 19.4431 15.8475 19.8753 15.7022 20.2632C15.1515 21.7325 13.6853 22.75 11.9999 22.75C10.3144 22.75 8.84821 21.7325 8.29756 20.2632C8.1522 19.8753 8.34879 19.4431 8.73666 19.2977Z"
 fill="currentColor"/>
</svg>