<svg width="24" height="24" viewBox="0 0 24 24" fill="none" xmlns="http://www.w3.org/2000/svg">
<path 
fill-rule="evenodd" 
clip-rule="evenodd" 
d="M3.32916 6.66451C3.5144 6.29403 3.96491 6.14386 4.33539 6.3291L12 10.1614L19.6646 6.3291C20.0351 6.14386 20.4856 6.29403 20.6708 6.66451C20.856 7.03499 20.7059 7.4855 20.3354 7.67074L12.3354 11.6707C12.1242 11.7763 11.8757 11.7763 11.6646 11.6707L3.66457 7.67074C3.29409 7.4855 3.14392 7.03499 3.32916 6.66451Z" 
fill="currentColor"/>
<path 
fill-rule="evenodd" 
clip-rule="evenodd" 
d="M10.061 1.67739C11.2948 1.10754 12.7052 1.10754 13.939 1.67739L18.939 3.98673C20.66 4.78158 21.75 6.54318 21.75 8.46617V15.5338C21.75 17.4568 20.66 19.2184 18.939 20.0133L13.939 22.3226C12.7052 22.8925 11.2948 22.8925 10.061 22.3226L5.06097 20.0133C3.34004 19.2184 2.25 17.4568 2.25 15.5338V8.46617C2.25 6.54318 3.34004 4.78158 5.06097 3.98673L10.061 1.67739ZM13.3101 3.03915C12.4753 2.65362 11.5247 2.65362 10.6899 3.03915L5.68993 5.3485C4.52183 5.88801 3.75 7.1037 3.75 8.46617V15.5338C3.75 16.8963 4.52184 18.112 5.68993 18.6515L10.6899 20.9608C11.5247 21.3464 12.4753 21.3464 13.3101 20.9608L18.3101 18.6515C19.4782 18.112 20.25 16.8963 20.25 15.5338V8.46617C20.25 7.1037 19.4782 5.88801 18.3101 5.3485L13.3101 3.03915Z"
 fill="currentColor"/>
<path 
fill-rule="evenodd" 
clip-rule="evenodd" 
d="M12 10.25C12.4142 10.25 12.75 10.5858 12.75 11V22C12.75 22.4142 12.4142 22.75 12 22.75C11.5858 22.75 11.25 22.4142 11.25 22V11C11.25 10.5858 11.5858 10.25 12 10.25Z" 
fill="currentColor"/>
</svg>
