<svg width="20" height="20" viewBox="0 0 24 24" fill="none" xmlns="http://www.w3.org/2000/svg">
<path
 fill-rule="evenodd" 
 clip-rule="evenodd" 
 d="M9 5.25C9.41421 5.25 9.75 5.58579 9.75 6L9.75 7C9.75 8.24264 10.7574 9.25 12 9.25C13.2426 9.25 14.25 8.24264 14.25 7V6C14.25 5.58579 14.5858 5.25 15 5.25C15.4142 5.25 15.75 5.58579 15.75 6V7C15.75 9.07107 14.0711 10.75 12 10.75C9.92893 10.75 8.25 9.07107 8.25 7L8.25 6C8.25 5.58579 8.58579 5.25 9 5.25Z" 
 fill="currentColor"/>
<path
 fill-rule="evenodd"
  clip-rule="evenodd"
   d="M3.70314 6.2191C4.08488 3.92871 6.06653 2.25 8.38851 2.25H15.6115C17.9335 2.25 19.9151 3.92871 20.2969 6.2191L21.9635 16.2191C22.4461 19.1144 20.2134 21.75 17.2782 21.75H6.72185C3.78664 21.75 1.55393 19.1144 2.03648 16.2191L3.70314 6.2191ZM8.38851 3.75C6.79979 3.75 5.44392 4.89859 5.18273 6.4657L3.51607 16.4657C3.1859 18.4467 4.71354 20.25 6.72185 20.25H17.2782C19.2865 20.25 20.8141 18.4467 20.4839 16.4657L18.8173 6.4657C18.5561 4.89859 17.2002 3.75 15.6115 3.75H8.38851Z" 
   fill="currentColor"/>
</svg>
